<svg width="145" height="42" viewBox="0 0 145 42" fill="none" xmlns="http://www.w3.org/2000/svg">
<path d="M4.68191 7.66266C3.36991 7.66266 2.44191 7.59866 1.89791 7.47066C1.35391 7.31066 1.01791 7.10266 0.889908 6.84666C0.793908 6.59066 0.745908 6.33466 0.745908 6.07866C0.745908 5.72666 0.921908 5.40666 1.27391 5.11866C1.65791 4.79866 2.42591 4.54266 3.57791 4.35066C5.04991 4.03066 6.77791 3.71066 8.76191 3.39066C10.7779 3.03866 12.9219 2.71866 15.1939 2.43066C17.4659 2.11066 19.7379 1.82266 22.0099 1.56666C24.3139 1.31066 26.5059 1.11866 28.5859 0.990663C30.6979 0.830663 32.5699 0.750663 34.2019 0.750663C36.3779 0.750663 37.8499 0.942662 38.6179 1.32666C39.4179 1.71066 39.8179 2.12666 39.8179 2.57466C39.8179 2.99066 39.5939 3.37466 39.1459 3.72666C38.7299 4.07866 38.0099 4.25466 36.9859 4.25466C36.5699 4.25466 35.6099 4.35066 34.1059 4.54266C32.6019 4.70266 30.7619 4.92666 28.5859 5.21466C26.4419 5.47066 24.1699 5.75866 21.7699 6.07866C21.6099 7.16666 21.3699 8.60666 21.0499 10.3987C20.7299 12.1587 20.3619 14.0947 19.9459 16.2067C19.5619 18.3187 19.1619 20.4467 18.7459 22.5907C18.3619 24.7027 17.9939 26.6707 17.6419 28.4947C17.3219 30.3187 17.0499 31.8227 16.8259 33.0067C16.6019 34.1907 16.4739 34.8947 16.4419 35.1187C16.3139 36.1107 16.0259 36.8627 15.5779 37.3747C15.1619 37.8547 14.6979 38.0947 14.1859 38.0947C13.5779 38.0947 13.0659 37.8387 12.6499 37.3267C12.2659 36.7827 12.0739 35.8387 12.0739 34.4947C12.0739 34.0467 12.1699 33.1827 12.3619 31.9027C12.5539 30.5907 12.8099 29.0387 13.1299 27.2467C13.4499 25.4547 13.8019 23.5507 14.1859 21.5347C14.5699 19.5187 14.9539 17.5507 15.3379 15.6307C15.7219 13.6787 16.0739 11.9187 16.3939 10.3507C16.7139 8.75066 16.9539 7.50266 17.1139 6.60666C14.5859 6.89466 12.2019 7.15066 9.96191 7.37466C7.75391 7.56666 5.99391 7.66266 4.68191 7.66266ZM40.2 38.9107C38.312 38.9107 36.824 38.1907 35.736 36.7507C34.648 35.3107 34.104 33.4387 34.104 31.1347C34.104 30.3027 34.216 29.4227 34.44 28.4947C34.696 27.5347 35.016 26.6707 35.4 25.9027C35.176 25.6787 35 25.3747 34.872 24.9907C34.744 24.5747 34.68 24.0627 34.68 23.4547C34.68 21.5667 35 19.8387 35.64 18.2707C36.28 16.7027 37.128 15.3427 38.184 14.1907C39.24 13.0067 40.408 12.0947 41.688 11.4547C43 10.8147 44.328 10.4947 45.672 10.4947C47.88 10.4947 49.672 11.2947 51.048 12.8947C52.424 14.4627 53.112 16.8627 53.112 20.0947C53.112 21.7907 52.856 23.5187 52.344 25.2787C51.864 27.0387 51.192 28.7347 50.328 30.3667C49.496 31.9987 48.52 33.4547 47.4 34.7347C46.312 36.0147 45.144 37.0387 43.896 37.8067C42.68 38.5427 41.448 38.9107 40.2 38.9107ZM38.568 24.2707C38.76 24.5267 38.856 24.8627 38.856 25.2787C38.856 25.7587 38.76 26.2387 38.568 26.7187C38.408 27.1987 38.232 27.8547 38.04 28.6867C37.848 29.5187 37.752 30.7027 37.752 32.2387C37.752 33.7747 38.36 34.5427 39.576 34.5427C40.92 34.5427 42.168 34.0147 43.32 32.9587C44.472 31.8707 45.496 30.4787 46.392 28.7827C47.288 27.0867 47.976 25.2787 48.456 23.3587C48.968 21.4067 49.224 19.5667 49.224 17.8387C49.224 16.7187 49.016 15.9347 48.6 15.4867C48.184 15.0067 47.432 14.7667 46.344 14.7667C45.224 14.7667 44.056 15.1507 42.84 15.9187C41.656 16.6547 40.664 17.6627 39.864 18.9427C39.064 20.2227 38.664 21.6627 38.664 23.2627C38.664 23.6147 38.632 23.9507 38.568 24.2707ZM61.6827 41.6947C61.1387 41.6947 60.6747 41.3907 60.2907 40.7827C59.9067 40.2067 59.7147 39.5347 59.7147 38.7667C59.7147 38.4467 59.7787 38.1587 59.9067 37.9027C60.0667 37.6467 60.3067 37.4547 60.6267 37.3267C60.9787 37.1667 61.3307 37.0227 61.6827 36.8947C62.0667 36.7347 62.4507 36.5747 62.8347 36.4147C62.7387 36.1587 62.6587 35.8547 62.5947 35.5027C62.5307 35.1507 62.4987 34.7347 62.4987 34.2547C62.4987 33.9027 62.5627 33.2307 62.6907 32.2387C62.8507 31.2147 63.0587 29.9987 63.3147 28.5907C63.5707 27.1827 63.8427 25.6947 64.1307 24.1267C64.4507 22.5267 64.7547 20.9747 65.0427 19.4707C65.3627 17.9347 65.6507 16.5587 65.9067 15.3427C66.4827 12.7187 67.1867 10.3667 68.0187 8.28666C68.8827 6.20666 70.0347 4.57466 71.4747 3.39066C72.9467 2.17466 74.8827 1.56666 77.2827 1.56666C79.1067 1.56666 80.8987 1.96666 82.6587 2.76666C84.4507 3.56666 86.0667 4.70266 87.5067 6.17466C88.9787 7.61466 90.1467 9.31066 91.0107 11.2627C91.8747 13.2147 92.3067 15.3427 92.3067 17.6467C92.3067 19.6307 91.8427 21.5187 90.9147 23.3107C89.9867 25.0707 88.7387 26.7347 87.1707 28.3027C85.6027 29.8707 83.8107 31.3267 81.7947 32.6707C79.8107 34.0147 77.7307 35.2467 75.5547 36.3667C73.4107 37.4547 71.2987 38.4147 69.2187 39.2467C67.1387 40.1107 65.2187 40.8307 63.4587 41.4067C63.2347 41.4707 62.9627 41.5347 62.6427 41.5987C62.3227 41.6627 62.0027 41.6947 61.6827 41.6947ZM66.2427 35.0707C69.0267 33.9187 71.7307 32.7347 74.3547 31.5187C77.0107 30.3027 79.3947 28.9587 81.5067 27.4867C83.6187 25.9827 85.2987 24.3027 86.5467 22.4467C87.7947 20.5907 88.4187 18.4627 88.4187 16.0627C88.4187 14.8147 88.1307 13.5987 87.5547 12.4147C86.9787 11.2307 86.1787 10.1747 85.1547 9.24666C84.1627 8.28666 83.0267 7.53466 81.7467 6.99066C80.4987 6.41466 79.1867 6.12666 77.8107 6.12666C76.5627 6.12666 75.4427 6.44666 74.4507 7.08666C73.4907 7.69466 72.6587 8.78266 71.9547 10.3507C71.2507 11.9187 70.6427 14.0947 70.1307 16.8787C69.7467 18.6067 69.3467 20.4787 68.9307 22.4947C68.5147 24.4787 68.0987 26.3827 67.6827 28.2067C67.2987 29.9987 66.9787 31.5187 66.7227 32.7667C66.4667 33.9827 66.3227 34.6867 66.2907 34.8787C66.2907 34.9427 66.2747 35.0067 66.2427 35.0707ZM106.856 38.9107C104.968 38.9107 103.48 38.1907 102.392 36.7507C101.304 35.3107 100.76 33.4387 100.76 31.1347C100.76 30.3027 100.872 29.4227 101.096 28.4947C101.352 27.5347 101.672 26.6707 102.056 25.9027C101.832 25.6787 101.656 25.3747 101.528 24.9907C101.4 24.5747 101.336 24.0627 101.336 23.4547C101.336 21.5667 101.656 19.8387 102.296 18.2707C102.936 16.7027 103.784 15.3427 104.84 14.1907C105.896 13.0067 107.064 12.0947 108.344 11.4547C109.656 10.8147 110.984 10.4947 112.328 10.4947C114.536 10.4947 116.328 11.2947 117.704 12.8947C119.08 14.4627 119.768 16.8627 119.768 20.0947C119.768 21.7907 119.512 23.5187 119 25.2787C118.52 27.0387 117.848 28.7347 116.984 30.3667C116.152 31.9987 115.176 33.4547 114.056 34.7347C112.968 36.0147 111.8 37.0387 110.552 37.8067C109.336 38.5427 108.104 38.9107 106.856 38.9107ZM105.224 24.2707C105.416 24.5267 105.512 24.8627 105.512 25.2787C105.512 25.7587 105.416 26.2387 105.224 26.7187C105.064 27.1987 104.888 27.8547 104.696 28.6867C104.504 29.5187 104.408 30.7027 104.408 32.2387C104.408 33.7747 105.016 34.5427 106.232 34.5427C107.576 34.5427 108.824 34.0147 109.976 32.9587C111.128 31.8707 112.152 30.4787 113.048 28.7827C113.944 27.0867 114.632 25.2787 115.112 23.3587C115.624 21.4067 115.88 19.5667 115.88 17.8387C115.88 16.7187 115.672 15.9347 115.256 15.4867C114.84 15.0067 114.088 14.7667 113 14.7667C111.88 14.7667 110.712 15.1507 109.496 15.9187C108.312 16.6547 107.32 17.6627 106.52 18.9427C105.72 20.2227 105.32 21.6627 105.32 23.2627C105.32 23.6147 105.288 23.9507 105.224 24.2707ZM132.725 39.4867C132.021 39.4867 131.477 39.2787 131.093 38.8627C130.741 38.4787 130.565 38.0307 130.565 37.5187C130.565 37.0707 130.757 36.6547 131.141 36.2707C131.557 35.8547 132.117 35.4867 132.821 35.1667C134.101 34.4947 135.301 33.8227 136.421 33.1507C137.573 32.4787 138.501 31.7587 139.205 30.9907C139.909 30.2227 140.261 29.4067 140.261 28.5427C140.261 27.8067 140.021 27.2467 139.541 26.8627C139.061 26.4467 138.405 26.2387 137.573 26.2387C137.093 26.2387 136.421 26.3347 135.557 26.5267C134.693 26.6867 133.749 26.8787 132.725 27.1027C131.733 27.2947 130.757 27.4867 129.797 27.6787C128.837 27.8387 128.021 27.9187 127.349 27.9187C126.133 27.9187 125.221 27.6307 124.613 27.0547C124.005 26.4467 123.701 25.6307 123.701 24.6067C123.701 24.0947 124.005 23.3267 124.613 22.3027C125.221 21.2787 126.021 20.1427 127.013 18.8947C128.037 17.6147 129.157 16.3347 130.373 15.0547C131.589 13.7747 132.821 12.5907 134.069 11.5027C135.349 10.4147 136.533 9.53466 137.621 8.86266C138.741 8.19066 139.669 7.85466 140.405 7.85466C141.141 7.85466 141.701 8.09466 142.085 8.57466C142.469 9.05466 142.661 9.66266 142.661 10.3987C142.661 10.9747 142.565 11.4707 142.373 11.8867C142.181 12.2707 141.781 12.5747 141.173 12.7987C140.597 13.0227 139.701 13.1507 138.485 13.1827C137.237 14.1747 135.909 15.3107 134.501 16.5907C133.125 17.8387 131.861 19.1347 130.709 20.4787C129.589 21.7907 128.773 23.0547 128.261 24.2707C129.317 23.9187 130.597 23.6147 132.101 23.3587C133.637 23.0707 135.189 22.9267 136.757 22.9267C139.221 22.9267 141.045 23.4867 142.229 24.6067C143.445 25.6947 144.053 27.1347 144.053 28.9267C144.053 30.0787 143.685 31.2787 142.949 32.5267C142.245 33.7427 141.317 34.8787 140.165 35.9347C139.013 36.9907 137.781 37.8387 136.469 38.4787C135.157 39.1507 133.909 39.4867 132.725 39.4867Z" fill="black"/>
</svg>
